# xmcd
#
# Track frame offsets:
# 182
# 22985
# 40807
# 57605
# 78260
# 98875
# 115680
# 131432
# 146265
# 164887
# 190350
# 208770
# 230047
# 244647
# 261700
# 276642
#
# Disc length: 3925 seconds
#
# Revision: 0
# Processed by: cddbd v1.4PL0 Copyright (c) Steve Scherf et al.
# Submitted via: MacMP3 Pro 5.0 (http://mp3.act2.co.jp/)
#
DISCID=f30f5310
DTITLE=Randy Crawford - The Love Songs
DYEAR=1900
DGENRE=
TTITLE0=One Day I'll Fly Away
TTITLE1=You Might Need Somebody
TTITLE2=Rainy Night In Georgia
TTITLE3=Trade Winds
TTITLE4=He Reminds Me
TTITLE5=Nightline
TTITLE6=Windsong
TTITLE7=Secret Combination
TTITLE8=Almaz
TTITLE9=Imagine
TTITLE10=In Real Life
TTITLE11=Everything Must Change
TTITLE12=I Don't Want To Lose Him
TTITLE13=Someone To Believe In
TTITLE14=One Hello
TTITLE15=Tender Falls The Rain
EXTD=
EXTT0=
EXTT1=
EXTT2=
EXTT3=
EXTT4=
EXTT5=
EXTT6=
EXTT7=
EXTT8=
EXTT9=
EXTT10=
EXTT11=
EXTT12=
EXTT13=
EXTT14=
EXTT15=
PLAYORDER=
